# xmcd
#
# Track frame offsets:
#	150
#	11550
#	22275
#	39825
#	53625
#	69375
#	85950
#	103875
#	116625
#	129450
#
# Disc length: 1863 seconds
# Revision: 0
# Processed by: cddbd v1.5.2PL0 Copyright (c) Steve Scherf et al.
# Submitted via: dBpowerAMP V12.0
#
DISCID=8107450a
DTITLE=Adam McPeak and Mountain Thunder - The Last Dirt Road
DYEAR=2015
DGENRE=Country
TTITLE0=The Breeze
TTITLE1=Lonesome Train Blues
TTITLE2=Beulah Land
TTITLE3=Back To Dixie
TTITLE4=Pardon Me
TTITLE5=Til a Tear Becomes a Rose
TTITLE6=Borrowed Time
TTITLE7=Once Upon a Time
TTITLE8=The Last Dirt Road
TTITLE9=Hard Times in Kentucky
EXTD=
EXTT0=
EXTT1=
EXTT2=
EXTT3=
EXTT4=
EXTT5=
EXTT6=
EXTT7=
EXTT8=
EXTT9=
PLAYORDER=
